<svg width="202" height="102" viewBox="0 0 202 102" fill="none" xmlns="http://www.w3.org/2000/svg">
<path d="M25.6507 29.1175C24.7907 28.5575 24.2807 27.9975 24.1207 27.4375C23.9807 26.8775 24.1807 26.4275 24.7207 26.0875C24.8407 26.0075 25.0707 25.9975 25.4107 26.0575C25.7707 26.1175 26.0407 26.2375 26.2207 26.4175C26.6207 26.7775 27.0707 26.9975 27.5707 27.0775C28.0907 27.1775 28.7207 27.1275 29.4607 26.9275C30.3007 26.6675 30.9407 26.3475 31.3807 25.9675C31.8407 25.5675 32.3507 25.0275 32.9107 24.3475C33.3307 23.8075 33.6207 23.2775 33.7807 22.7575C33.9607 22.2375 34.0407 21.7675 34.0207 21.3475C34.0207 20.9075 33.9207 20.5775 33.7207 20.3575C33.2207 19.6575 32.6007 19.1775 31.8607 18.9175C31.1207 18.6375 30.1507 18.6575 28.9507 18.9775C28.8107 18.9975 28.6007 19.0375 28.3207 19.0975C28.0407 19.1575 27.7907 19.2175 27.5707 19.2775C27.3507 19.3175 27.2307 19.3375 27.2107 19.3375C27.0707 19.3775 26.9607 19.3975 26.8807 19.3975C26.8007 19.3975 26.7007 19.4975 26.5807 19.6975C26.4807 19.8775 26.3207 20.2675 26.1007 20.8675C25.8807 21.4475 25.5507 22.3475 25.1107 23.5675C24.6907 24.7875 24.3307 25.6575 24.0307 26.1775C23.7507 26.6775 23.5007 26.9075 23.2807 26.8675C23.0607 26.8075 22.8107 26.5875 22.5307 26.2075C22.3707 25.9275 22.1907 25.6175 21.9907 25.2775C21.8107 24.9375 21.8207 24.5875 22.0207 24.2275C22.1207 24.0475 22.2007 23.8875 22.2607 23.7475C22.3207 23.5875 22.4007 23.3175 22.5007 22.9375C22.6007 22.6375 22.7907 22.1175 23.0707 21.3775C23.3707 20.6175 23.7207 19.7375 24.1207 18.7375C24.5207 17.7175 24.9407 16.6675 25.3807 15.5875C25.8207 14.5075 26.2407 13.4875 26.6407 12.5275C27.0607 11.5675 27.4107 10.7575 27.6907 10.0975C27.9707 9.47752 28.1407 9.02752 28.2007 8.74752C28.2607 8.46752 28.2407 8.31752 28.1407 8.29752C28.1407 8.19752 28.1107 8.10752 28.0507 8.02752C27.9907 7.92752 27.9707 7.83752 27.9907 7.75752C27.9907 7.67752 28.1607 7.56752 28.5007 7.42752C28.8607 7.28752 29.2407 7.15752 29.6407 7.03752C30.0407 6.91752 30.3307 6.87752 30.5107 6.91752C30.6107 6.91752 30.7307 6.91752 30.8707 6.91752C31.0107 6.89752 31.0807 6.84752 31.0807 6.76752C31.1407 6.76752 31.3307 6.74752 31.6507 6.70752C31.9707 6.66752 32.3207 6.66752 32.7007 6.70752C34.0407 6.82752 35.1407 7.21752 36.0007 7.87752C36.8607 8.51752 37.2807 9.54752 37.2607 10.9675C37.2407 11.3075 37.1007 11.7475 36.8407 12.2875C36.5807 12.8275 36.2507 13.3675 35.8507 13.9075C35.4707 14.4475 35.0607 14.9175 34.6207 15.3175C34.3607 15.5375 34.0807 15.7675 33.7807 16.0075C33.5007 16.2275 33.2507 16.4175 33.0307 16.5775C32.8307 16.7175 32.7307 16.7875 32.7307 16.7875C32.7307 16.7875 32.8107 16.8175 32.9707 16.8775C33.1307 16.9375 33.3007 16.9975 33.4807 17.0575C34.4007 17.3975 35.1207 17.8275 35.6407 18.3475C36.1807 18.8675 36.5607 19.5875 36.7807 20.5075C36.8607 20.8075 36.8607 21.1775 36.7807 21.6175C36.7207 22.0575 36.6307 22.4975 36.5107 22.9375C36.3907 23.3575 36.2607 23.7175 36.1207 24.0175C35.9807 24.1575 35.8707 24.3075 35.7907 24.4675C35.7107 24.6075 35.6707 24.6775 35.6707 24.6775C35.6707 24.7175 35.5907 24.8775 35.4307 25.1575C35.2707 25.4175 35.0807 25.7075 34.8607 26.0275C34.6407 26.3475 34.4307 26.6275 34.2307 26.8675C34.0307 27.0275 33.7407 27.2475 33.3607 27.5275C33.0007 27.8275 32.6007 28.1175 32.1607 28.3975C31.7407 28.6775 31.3407 28.8875 30.9607 29.0275C30.4007 29.2675 29.7707 29.4275 29.0707 29.5075C28.3907 29.6075 27.7407 29.6175 27.1207 29.5375C26.5007 29.4775 26.0107 29.3375 25.6507 29.1175ZM27.8107 16.6675C27.8107 16.6675 27.9707 16.6375 28.2907 16.5775C28.6307 16.4975 29.0007 16.4175 29.4007 16.3375C29.8007 16.2375 30.1007 16.1475 30.3007 16.0675C30.4007 16.0075 30.5407 15.9275 30.7207 15.8275C30.9207 15.7275 31.1207 15.5775 31.3207 15.3775C31.6007 15.1175 31.9007 14.8275 32.2207 14.5075C32.5407 14.1675 32.8507 13.8075 33.1507 13.4275C33.4707 13.0475 33.7407 12.6375 33.9607 12.1975C34.4207 11.4775 34.6707 10.9575 34.7107 10.6375C34.7507 10.3175 34.6407 10.0275 34.3807 9.76752C34.2007 9.54752 33.9507 9.38752 33.6307 9.28752C33.3107 9.16752 32.9607 9.10752 32.5807 9.10752C32.2207 9.08752 31.8707 9.12752 31.5307 9.22752C31.2707 9.30752 31.0707 9.40752 30.9307 9.52752C30.7907 9.62752 30.7207 9.78752 30.7207 10.0075C30.7207 10.1875 30.6607 10.3775 30.5407 10.5775C30.4407 10.7575 30.3407 10.8975 30.2407 10.9975C30.2207 11.1375 30.1507 11.2775 30.0307 11.4175C29.9307 11.5375 29.8807 11.5975 29.8807 11.5975C29.8807 11.6775 29.7507 11.9275 29.4907 12.3475C29.2507 12.7475 28.9907 13.3275 28.7107 14.0875C28.3507 14.9475 28.1107 15.5675 27.9907 15.9475C27.8707 16.3275 27.8107 16.5675 27.8107 16.6675ZM44.0539 26.3575C43.4539 26.6975 42.8139 26.8975 42.1339 26.9575C41.4739 26.9975 40.8539 26.9075 40.2739 26.6875C39.6939 26.4475 39.2239 26.0975 38.8639 25.6375C38.6639 25.3775 38.4739 24.9675 38.2939 24.4075C38.1139 23.8275 38.0839 23.0475 38.2039 22.0675C38.3239 21.1475 38.6039 20.2175 39.0439 19.2775C39.5039 18.3375 40.0639 17.5075 40.7239 16.7875C41.3839 16.0675 42.1039 15.5775 42.8839 15.3175C43.1639 15.2175 43.4439 15.1475 43.7239 15.1075C44.0239 15.0475 44.4139 15.0375 44.8939 15.0775C45.3539 15.1375 45.7639 15.2575 46.1239 15.4375C46.4839 15.5975 46.7439 15.7775 46.9039 15.9775C47.2239 16.2975 47.4339 16.6075 47.5339 16.9075C47.6339 17.2075 47.6739 17.4975 47.6539 17.7775C47.5539 18.4175 47.2639 19.1075 46.7839 19.8475C46.3239 20.5875 45.6739 21.1375 44.8339 21.4975C44.4939 21.6375 44.0939 21.7275 43.6339 21.7675C43.1739 21.8075 42.5439 21.7475 41.7439 21.5875C41.2639 21.4875 40.9439 21.5375 40.7839 21.7375C40.6439 21.9375 40.5839 22.3275 40.6039 22.9075C40.6439 23.2675 40.7239 23.5875 40.8439 23.8675C40.9839 24.1275 41.2339 24.3075 41.5939 24.4075C42.0539 24.4875 42.3839 24.4975 42.5839 24.4375C42.7839 24.3575 43.0339 24.2475 43.3339 24.1075C43.4939 24.0075 43.6439 23.8975 43.7839 23.7775C43.9439 23.6575 44.0939 23.5375 44.2339 23.4175C44.3939 23.2975 44.5239 23.2075 44.6239 23.1475C44.7239 23.0675 44.8239 23.0175 44.9239 22.9975C45.0239 22.9775 45.1239 22.9675 45.2239 22.9675C45.4439 22.9875 45.6539 23.1075 45.8539 23.3275C46.0539 23.5475 46.1839 23.7575 46.2439 23.9575C46.2439 24.1175 46.1439 24.3475 45.9439 24.6475C45.7439 24.9275 45.4739 25.2275 45.1339 25.5475C44.8139 25.8475 44.4539 26.1175 44.0539 26.3575ZM43.6639 19.6675C43.8039 19.6075 44.0039 19.4675 44.2639 19.2475C44.5439 19.0275 44.7939 18.7975 45.0139 18.5575C45.2339 18.2975 45.3439 18.0975 45.3439 17.9575C45.3439 17.7375 45.1939 17.5475 44.8939 17.3875C44.6139 17.2275 44.2439 17.1975 43.7839 17.2975C43.6239 17.3375 43.4339 17.4475 43.2139 17.6275C42.9939 17.8075 42.7739 18.0175 42.5539 18.2575C42.3339 18.4775 42.1439 18.6975 41.9839 18.9175C41.8239 19.1175 41.7139 19.2775 41.6539 19.3975C41.7339 19.4975 41.8939 19.5775 42.1339 19.6375C42.3739 19.6975 42.6339 19.7275 42.9139 19.7275C43.2139 19.7275 43.4639 19.7075 43.6639 19.6675ZM49.8734 27.1375C49.1934 26.8575 48.6934 26.5675 48.3734 26.2675C48.0734 25.9475 47.9534 25.6675 48.0134 25.4275C48.0534 25.3075 48.1234 25.1975 48.2234 25.0975C48.3234 24.9975 48.5434 24.9575 48.8834 24.9775C49.2434 24.9775 49.7934 25.0675 50.5334 25.2475C50.7534 25.2475 50.9734 25.2375 51.1934 25.2175C51.4134 25.1975 51.6134 25.1675 51.7934 25.1275C51.9934 25.0875 52.1534 25.0375 52.2734 24.9775C52.3734 24.9375 52.4034 24.8875 52.3634 24.8275C52.3234 24.7475 52.2534 24.6675 52.1534 24.5875C52.0734 24.4875 51.9834 24.4275 51.8834 24.4075C51.7834 24.3675 51.6934 24.3475 51.6134 24.3475C51.5734 24.2475 51.4834 24.1475 51.3434 24.0475C51.2234 23.9475 51.0734 23.8375 50.8934 23.7175C50.4534 23.3575 50.0534 23.0375 49.6934 22.7575C49.3334 22.4775 49.1934 22.2675 49.2734 22.1275C49.2734 22.0475 49.2734 22.0075 49.2734 22.0075C49.2734 21.9875 49.2734 21.9775 49.2734 21.9775C49.1334 21.9775 49.0034 21.7875 48.8834 21.4075C48.7634 21.0075 48.7034 20.6475 48.7034 20.3275C48.7034 19.9275 48.7834 19.5275 48.9434 19.1275C49.1234 18.7275 49.3434 18.3475 49.6034 17.9875C49.8834 17.6275 50.1634 17.3075 50.4434 17.0275C50.8234 16.6675 51.2234 16.3175 51.6434 15.9775C52.0834 15.6175 52.5534 15.2975 53.0534 15.0175C53.5734 14.7375 54.1434 14.5175 54.7634 14.3575C55.0434 14.2975 55.3634 14.2675 55.7234 14.2675C56.0834 14.2675 56.3434 14.3175 56.5034 14.4175C56.6634 14.3175 56.8634 14.3475 57.1034 14.5075C57.3434 14.6475 57.5834 14.8475 57.8234 15.1075C58.0634 15.3675 58.2434 15.6275 58.3634 15.8875C58.3634 16.1275 58.3534 16.4275 58.3334 16.7875C58.3334 17.1275 58.3134 17.4275 58.2734 17.6875C58.2334 17.9475 58.1434 18.0775 58.0034 18.0775C58.0034 18.0775 57.9734 18.0875 57.9134 18.1075C57.8734 18.1075 57.8534 18.1575 57.8534 18.2575C57.8534 18.4575 57.7034 18.6875 57.4034 18.9475C57.0234 19.2075 56.6634 19.4175 56.3234 19.5775C55.9834 19.7375 55.7234 19.7475 55.5434 19.6075C55.4234 19.5275 55.3134 19.4475 55.2134 19.3675C55.1134 19.2875 55.0234 19.1875 54.9434 19.0675C54.9434 19.0675 54.9134 19.0275 54.8534 18.9475C54.8134 18.8475 54.7934 18.7575 54.7934 18.6775C54.7934 18.5975 54.8234 18.5275 54.8834 18.4675C54.9434 18.3875 54.9734 18.3475 54.9734 18.3475C55.2534 18.0875 55.4634 17.8475 55.6034 17.6275C55.7634 17.4075 55.8734 17.2175 55.9334 17.0575C55.9934 16.8775 56.0234 16.7375 56.0234 16.6375C56.0234 16.5175 55.9934 16.4475 55.9334 16.4275C55.8934 16.3875 55.7934 16.3675 55.6334 16.3675C55.5334 16.3675 55.3134 16.4475 54.9734 16.6075C54.6534 16.7675 54.3134 16.9675 53.9534 17.2075C53.5934 17.4275 53.3134 17.6275 53.1134 17.8075C53.0334 17.9475 52.9734 18.0375 52.9334 18.0775C52.9134 18.1175 52.8634 18.1375 52.7834 18.1375C52.7834 18.0575 52.7334 18.0675 52.6334 18.1675C52.5334 18.2675 52.4134 18.4075 52.2734 18.5875C52.1334 18.7675 51.9934 18.9575 51.8534 19.1575C51.7134 19.3575 51.6034 19.5175 51.5234 19.6375C51.5034 19.8175 51.4534 19.9875 51.3734 20.1475C51.3134 20.2875 51.2934 20.4375 51.3134 20.5975C51.3334 20.7975 51.4334 20.9875 51.6134 21.1675C51.7934 21.3475 52.0534 21.5775 52.3934 21.8575C53.0934 22.3775 53.6134 22.7875 53.9534 23.0875C54.3134 23.3875 54.5634 23.6275 54.7034 23.8075C54.8434 23.9875 54.9334 24.1675 54.9734 24.3475C55.3134 24.9675 55.3534 25.5075 55.0934 25.9675C54.8334 26.4075 54.4334 26.7475 53.8934 26.9875C53.6934 27.0875 53.3434 27.1775 52.8434 27.2575C52.3434 27.3575 51.8134 27.3975 51.2534 27.3775C50.7134 27.3775 50.2534 27.2975 49.8734 27.1375ZM62.6717 27.1375C62.3917 27.0575 62.1117 26.9175 61.8317 26.7175C61.5517 26.5175 61.2617 26.2875 60.9617 26.0275C60.7217 25.7075 60.5517 25.4175 60.4517 25.1575C60.3517 24.8775 60.2917 24.5575 60.2717 24.1975C60.2717 23.8175 60.2717 23.3375 60.2717 22.7575C60.2717 22.5175 60.3117 22.1775 60.3917 21.7375C60.4917 21.2975 60.5917 20.8375 60.6917 20.3575C60.8117 19.8775 60.9217 19.4575 61.0217 19.0975C61.1217 18.7175 61.1817 18.4675 61.2017 18.3475C61.2617 18.0875 61.1617 17.9375 60.9017 17.8975C60.6417 17.8575 60.3517 17.8475 60.0317 17.8675C59.7317 17.8675 59.5317 17.8375 59.4317 17.7775C59.3517 17.7575 59.3117 17.6575 59.3117 17.4775C59.3117 17.2775 59.3117 17.1775 59.3117 17.1775C59.3117 17.0975 59.2717 17.0475 59.1917 17.0275C59.1117 16.9875 59.0417 16.9175 58.9817 16.8175C58.9417 16.7375 58.9917 16.5875 59.1317 16.3675C59.2717 16.1475 59.4517 16.0175 59.6717 15.9775C59.8517 15.9375 60.1217 15.9075 60.4817 15.8875C60.8417 15.8475 61.2017 15.7775 61.5617 15.6775C61.9417 15.5575 62.2317 15.3775 62.4317 15.1375C62.6117 14.6975 62.8117 14.2275 63.0317 13.7275C63.2517 13.2075 63.4617 12.7575 63.6617 12.3775C63.8617 11.9775 64.0017 11.7275 64.0817 11.6275C64.4217 11.4475 64.7717 11.3775 65.1317 11.4175C65.4917 11.4375 65.7717 11.6075 65.9717 11.9275C66.0717 12.0675 66.1517 12.1675 66.2117 12.2275C66.2917 12.2875 66.3217 12.3775 66.3017 12.4975C66.3017 12.6175 66.2217 12.8375 66.0617 13.1575C65.9217 13.4575 65.6817 13.9275 65.3417 14.5675C65.2417 14.7675 65.1517 14.9475 65.0717 15.1075C64.9917 15.2475 64.9517 15.3175 64.9517 15.3175C65.0317 15.3375 65.1517 15.3475 65.3117 15.3475C65.4717 15.3475 65.6717 15.3375 65.9117 15.3175C66.1317 15.2775 66.3717 15.2475 66.6317 15.2275C66.8917 15.1875 67.1217 15.1875 67.3217 15.2275C67.7817 15.2275 68.1217 15.3575 68.3417 15.6175C68.5617 15.8775 68.6817 16.2075 68.7017 16.6075C68.7417 16.8275 68.6617 17.0175 68.4617 17.1775C68.2617 17.3375 67.8917 17.4175 67.3517 17.4175C67.1717 17.4175 66.9117 17.4275 66.5717 17.4475C66.2317 17.4675 65.8817 17.4875 65.5217 17.5075C65.1617 17.5275 64.8517 17.5575 64.5917 17.5975C64.3517 17.6175 64.2317 17.6475 64.2317 17.6875C64.1717 17.7275 64.0717 17.8875 63.9317 18.1675C63.8117 18.4275 63.6817 18.7475 63.5417 19.1275C63.4217 19.5075 63.3117 19.8675 63.2117 20.2075C63.0717 20.8875 62.9717 21.5475 62.9117 22.1875C62.8517 22.8275 62.8417 23.3875 62.8817 23.8675C62.9417 24.3275 63.0617 24.6575 63.2417 24.8575C63.4217 25.0375 63.6917 25.0375 64.0517 24.8575C64.4317 24.6575 64.7817 24.4275 65.1017 24.1675C65.4617 23.8675 65.7717 23.7775 66.0317 23.8975C66.2917 23.9975 66.4517 24.2175 66.5117 24.5575C66.5917 24.8775 66.5017 25.2275 66.2417 25.6075C66.0017 25.9875 65.6617 26.3075 65.2217 26.5675C64.7817 26.8275 64.3317 27.0075 63.8717 27.1075C63.4117 27.2275 63.0117 27.2375 62.6717 27.1375ZM79.0889 26.4475C78.9289 26.4675 78.6289 26.3775 78.1889 26.1775C77.7489 25.9775 77.4089 25.7475 77.1689 25.4875C77.0289 25.2675 76.8989 24.9075 76.7789 24.4075C76.6589 23.8875 76.5689 23.3175 76.5089 22.6975C76.4489 22.0775 76.4189 21.5175 76.4189 21.0175C76.4389 20.5175 76.4889 19.9675 76.5689 19.3675C76.6689 18.7475 76.7589 18.1775 76.8389 17.6575C76.9389 17.1375 77.0089 16.7875 77.0489 16.6075C77.2289 16.4075 77.4589 16.2375 77.7389 16.0975C78.0189 15.9375 78.2789 15.8375 78.5189 15.7975C78.7789 15.7575 78.9689 15.8275 79.0889 16.0075C79.3689 16.1475 79.5389 16.4475 79.5989 16.9075C79.6789 17.3475 79.6289 17.7675 79.4489 18.1675C79.4489 18.2675 79.4289 18.4075 79.3889 18.5875C79.3489 18.7475 79.3089 18.8975 79.2689 19.0375C79.1089 19.3175 79.0189 19.5675 78.9989 19.7875C78.9989 19.9875 79.0289 20.2175 79.0889 20.4775C79.1489 20.7375 79.0989 20.9775 78.9389 21.1975V21.1675C78.9189 21.3075 78.8889 21.4875 78.8489 21.7075C78.8289 21.9275 78.8189 22.1475 78.8189 22.3675C78.8389 22.5675 78.8989 22.7375 78.9989 22.8775C79.0189 23.0575 79.0889 23.1775 79.2089 23.2375C79.3289 23.2975 79.5389 23.1975 79.8389 22.9375C80.0789 22.6975 80.3189 22.4275 80.5589 22.1275C80.8189 21.8075 81.0489 21.4975 81.2489 21.1975C81.4489 20.8775 81.5989 20.6075 81.6989 20.3875C81.8189 20.1475 81.8589 19.9875 81.8189 19.9075C81.7389 19.7475 81.7789 19.6175 81.9389 19.5175C82.1189 19.3975 82.2689 19.2875 82.3889 19.1875C82.4889 19.0675 82.5489 18.9475 82.5689 18.8275C82.5889 18.6875 82.6389 18.5475 82.7189 18.4075C82.8189 18.3075 82.8989 18.1675 82.9589 17.9875C82.8989 17.8475 82.9389 17.7275 83.0789 17.6275C83.2389 17.5075 83.3389 17.3875 83.3789 17.2675C83.4389 16.9275 83.5889 16.6875 83.8289 16.5475C84.0689 16.3875 84.3289 16.3275 84.6089 16.3675C84.8889 16.3875 85.1189 16.4875 85.2989 16.6675C85.4989 16.8475 85.5889 17.1075 85.5689 17.4475C85.5489 17.6875 85.4589 18.0375 85.2989 18.4975C85.1389 18.9575 84.9289 19.4475 84.6689 19.9675C84.4289 20.4875 84.1589 20.9575 83.8589 21.3775C83.7589 21.5375 83.6689 21.6975 83.5889 21.8575C83.5089 22.0175 83.3789 22.2275 83.1989 22.4875C83.0389 22.7475 82.7589 23.1275 82.3589 23.6275C82.1989 23.7875 82.0389 23.9575 81.8789 24.1375C81.7189 24.2975 81.5589 24.4475 81.3989 24.5875C81.0189 25.0275 80.6089 25.4475 80.1689 25.8475C79.7289 26.2275 79.3689 26.4275 79.0889 26.4475ZM88.5706 26.5375C88.4106 26.5775 88.2006 26.5975 87.9406 26.5975C87.6806 26.5775 87.4506 26.5475 87.2506 26.5075C87.0706 26.4475 86.9806 26.3875 86.9806 26.3275C86.9806 26.2275 86.9306 26.1775 86.8306 26.1775C86.8306 26.1775 86.7206 26.0975 86.5006 25.9375C86.2806 25.7575 86.0806 25.6275 85.9006 25.5475C85.7206 25.2675 85.6006 24.9475 85.5406 24.5875C85.5006 24.2075 85.6206 23.5475 85.9006 22.6075C85.9206 21.9675 86.1006 21.2975 86.4406 20.5975C86.7806 19.8775 87.2106 19.1775 87.7306 18.4975C88.2506 17.8175 88.7906 17.2175 89.3506 16.6975C89.9106 16.1575 90.4106 15.7575 90.8506 15.4975C91.1306 15.2175 91.5006 15.0675 91.9606 15.0475C92.4406 15.0275 92.8606 15.1175 93.2206 15.3175C93.4206 15.4175 93.6406 15.6175 93.8806 15.9175C94.1206 16.2175 94.3506 16.5375 94.5706 16.8775C94.7906 17.1975 94.9606 17.4875 95.0806 17.7475C95.1406 17.9675 95.1906 18.1675 95.2306 18.3475C95.2906 18.5075 95.3306 18.7075 95.3506 18.9475C95.3706 19.1875 95.3506 19.5475 95.2906 20.0275C95.1906 20.3875 95.1006 20.7575 95.0206 21.1375C94.9606 21.4975 94.9306 21.8675 94.9306 22.2475C94.8906 22.6275 94.9306 22.8975 95.0506 23.0575C95.1906 23.2175 95.3906 23.2275 95.6506 23.0875C95.8906 22.9675 96.1406 22.9575 96.4006 23.0575C96.6606 23.1375 96.8406 23.2975 96.9406 23.5375C97.0606 23.7575 97.0306 24.0475 96.8506 24.4075C96.7306 24.6675 96.5406 24.9175 96.2806 25.1575C96.0206 25.3975 95.7306 25.5975 95.4106 25.7575C95.0906 25.8975 94.7806 25.9675 94.4806 25.9675C94.2606 25.9675 94.0406 25.8875 93.8206 25.7275C93.6006 25.5475 93.4006 25.3075 93.2206 25.0075C93.0406 24.7075 92.8906 24.3775 92.7706 24.0175L92.5906 23.3275L91.5106 24.3175C91.2506 24.5975 90.9906 24.8575 90.7306 25.0975C90.4906 25.3175 90.3406 25.4775 90.2806 25.5775C90.1806 25.7575 89.9806 25.9175 89.6806 26.0575C89.4006 26.1975 89.0306 26.3575 88.5706 26.5375ZM89.3806 23.6575C89.7206 23.4575 90.0106 23.2175 90.2506 22.9375C90.5106 22.6575 90.7606 22.3475 91.0006 22.0075C91.2406 21.6475 91.5006 21.2675 91.7806 20.8675C92.1206 20.4075 92.3606 20.0375 92.5006 19.7575C92.6606 19.4775 92.7806 19.1775 92.8606 18.8575C92.7806 18.6375 92.6706 18.4075 92.5306 18.1675C92.3906 17.9075 92.2506 17.7675 92.1106 17.7475C91.8306 17.7475 91.4906 17.9175 91.0906 18.2575C90.7106 18.5975 90.2906 19.0875 89.8306 19.7275C89.7506 19.8275 89.6506 19.9875 89.5306 20.2075C89.4106 20.4275 89.2906 20.6375 89.1706 20.8375C89.0706 21.0175 89.0006 21.1375 88.9606 21.1975C88.9006 21.2775 88.8106 21.4675 88.6906 21.7675C88.5906 22.0475 88.5006 22.3375 88.4206 22.6375C88.3406 22.9175 88.3006 23.1175 88.3006 23.2375C88.3006 23.3575 88.3106 23.4875 88.3306 23.6275C88.3706 23.7675 88.4706 23.8575 88.6306 23.8975C88.7906 23.9375 89.0406 23.8575 89.3806 23.6575ZM99.4653 27.2875C99.0853 27.3875 98.7453 27.2775 98.4453 26.9575C98.1453 26.6575 97.9353 26.2075 97.8153 25.6075C97.6953 25.0075 97.7153 24.3375 97.8753 23.5975C97.9753 23.3575 98.0553 23.1275 98.1153 22.9075C98.1753 22.6675 98.2053 22.4775 98.2053 22.3375C98.2453 22.1375 98.3253 21.8475 98.4453 21.4675C98.5653 21.0675 98.6953 20.6575 98.8353 20.2375C98.9753 19.8175 99.1053 19.4475 99.2253 19.1275C99.3653 18.7875 99.4553 18.5775 99.4953 18.4975C99.5753 18.4975 99.6453 18.4275 99.7053 18.2875C99.7653 18.1475 99.7953 18.0075 99.7953 17.8675C99.7953 17.7075 99.8253 17.5275 99.8853 17.3275C99.9653 17.1275 100.045 16.9875 100.125 16.9075C100.125 16.8075 100.145 16.6975 100.185 16.5775C100.245 16.4375 100.275 16.3275 100.275 16.2475C100.275 16.1675 100.295 16.0875 100.335 16.0075C100.395 15.9275 100.425 15.8475 100.425 15.7675C100.565 15.5075 100.745 15.0975 100.965 14.5375C101.205 13.9575 101.455 13.3175 101.715 12.6175C101.995 11.9175 102.255 11.2275 102.495 10.5475C102.735 9.86752 102.925 9.29752 103.065 8.83752C103.225 8.35752 103.305 8.06752 103.305 7.96752C103.305 7.80752 103.365 7.65752 103.485 7.51752C103.605 7.37752 103.745 7.30752 103.905 7.30752C103.965 7.24752 104.105 7.20752 104.325 7.18752C104.545 7.14752 104.695 7.12752 104.775 7.12752C104.775 7.12752 104.815 7.16752 104.895 7.24752C104.975 7.32752 105.095 7.44752 105.255 7.60752C105.415 7.74752 105.565 7.90752 105.705 8.08752C105.865 8.26752 105.945 8.47752 105.945 8.71752C105.945 8.97752 105.905 9.22752 105.825 9.46752C105.765 9.70752 105.645 10.0375 105.465 10.4575C105.285 10.8575 105.005 11.4575 104.625 12.2575C104.465 12.6575 104.295 13.0375 104.115 13.3975C103.935 13.7375 103.845 13.9475 103.845 14.0275C103.845 14.1075 103.805 14.2275 103.725 14.3875C103.665 14.5475 103.595 14.7475 103.515 14.9875C103.435 15.1475 103.325 15.3875 103.185 15.7075C103.045 16.0075 102.895 16.3375 102.735 16.6975C102.595 17.0375 102.475 17.3375 102.375 17.5975C102.275 17.8375 102.225 17.9775 102.225 18.0175C102.225 18.0975 102.215 18.1775 102.195 18.2575C102.195 18.3375 102.155 18.4175 102.075 18.4975C101.995 18.4975 101.945 18.5575 101.925 18.6775C101.925 18.7775 101.925 18.8275 101.925 18.8275C101.925 19.0275 101.765 19.5575 101.445 20.4175C101.125 21.5175 100.825 22.5275 100.545 23.4475C100.285 24.3675 100.155 25.1075 100.155 25.6675C100.155 26.1475 100.075 26.5175 99.9153 26.7775C99.7753 27.0375 99.6253 27.2075 99.4653 27.2875ZM105.637 25.9075C105.257 25.5675 104.927 25.2175 104.647 24.8575C104.367 24.4775 104.177 23.8975 104.077 23.1175C104.037 22.7575 104.077 22.2575 104.197 21.6175C104.317 20.9775 104.497 20.3075 104.737 19.6075C104.977 18.8875 105.237 18.2275 105.517 17.6275C105.797 17.0275 106.077 16.5875 106.357 16.3075C106.597 16.0075 106.897 15.7675 107.257 15.5875C107.637 15.4075 108.027 15.4075 108.427 15.5875C108.647 15.8475 108.757 16.2075 108.757 16.6675C108.777 17.1075 108.667 17.5175 108.427 17.8975C108.027 18.4375 107.677 19.1175 107.377 19.9375C107.097 20.7375 106.907 21.4575 106.807 22.0975C106.667 22.5575 106.607 22.9175 106.627 23.1775C106.647 23.4175 106.787 23.5675 107.047 23.6275C107.427 23.7275 107.817 23.6175 108.217 23.2975C108.637 22.9775 109.037 22.5075 109.417 21.8875C109.817 21.2675 110.167 20.5575 110.467 19.7575C110.587 19.4775 110.677 19.1475 110.737 18.7675C110.817 18.3875 110.897 18.1075 110.977 17.9275C111.077 17.5275 111.247 17.2175 111.487 16.9975C111.747 16.7575 112.017 16.6075 112.297 16.5475C112.577 16.4875 112.787 16.5175 112.927 16.6375C113.107 16.7175 113.297 16.8475 113.497 17.0275C113.697 17.2075 113.777 17.5275 113.737 17.9875C113.737 18.7275 113.577 19.3575 113.257 19.8775C112.937 20.3975 112.667 20.9475 112.447 21.5275C112.267 21.9475 111.977 22.4375 111.577 22.9975C111.177 23.5575 110.747 24.0675 110.287 24.5275C109.847 24.9875 109.437 25.2975 109.057 25.4575C108.497 25.8175 107.927 26.0375 107.347 26.1175C106.767 26.1775 106.197 26.1075 105.637 25.9075ZM120.431 26.3575C119.831 26.6975 119.191 26.8975 118.511 26.9575C117.851 26.9975 117.231 26.9075 116.651 26.6875C116.071 26.4475 115.601 26.0975 115.241 25.6375C115.041 25.3775 114.851 24.9675 114.671 24.4075C114.491 23.8275 114.461 23.0475 114.581 22.0675C114.701 21.1475 114.981 20.2175 115.421 19.2775C115.881 18.3375 116.441 17.5075 117.101 16.7875C117.761 16.0675 118.481 15.5775 119.261 15.3175C119.541 15.2175 119.821 15.1475 120.101 15.1075C120.401 15.0475 120.791 15.0375 121.271 15.0775C121.731 15.1375 122.141 15.2575 122.501 15.4375C122.861 15.5975 123.121 15.7775 123.281 15.9775C123.601 16.2975 123.811 16.6075 123.911 16.9075C124.011 17.2075 124.051 17.4975 124.031 17.7775C123.931 18.4175 123.641 19.1075 123.161 19.8475C122.701 20.5875 122.051 21.1375 121.211 21.4975C120.871 21.6375 120.471 21.7275 120.011 21.7675C119.551 21.8075 118.921 21.7475 118.121 21.5875C117.641 21.4875 117.321 21.5375 117.161 21.7375C117.021 21.9375 116.961 22.3275 116.981 22.9075C117.021 23.2675 117.101 23.5875 117.221 23.8675C117.361 24.1275 117.611 24.3075 117.971 24.4075C118.431 24.4875 118.761 24.4975 118.961 24.4375C119.161 24.3575 119.411 24.2475 119.711 24.1075C119.871 24.0075 120.021 23.8975 120.161 23.7775C120.321 23.6575 120.471 23.5375 120.611 23.4175C120.771 23.2975 120.901 23.2075 121.001 23.1475C121.101 23.0675 121.201 23.0175 121.301 22.9975C121.401 22.9775 121.501 22.9675 121.601 22.9675C121.821 22.9875 122.031 23.1075 122.231 23.3275C122.431 23.5475 122.561 23.7575 122.621 23.9575C122.621 24.1175 122.521 24.3475 122.321 24.6475C122.121 24.9275 121.851 25.2275 121.511 25.5475C121.191 25.8475 120.831 26.1175 120.431 26.3575ZM120.041 19.6675C120.181 19.6075 120.381 19.4675 120.641 19.2475C120.921 19.0275 121.171 18.7975 121.391 18.5575C121.611 18.2975 121.721 18.0975 121.721 17.9575C121.721 17.7375 121.571 17.5475 121.271 17.3875C120.991 17.2275 120.621 17.1975 120.161 17.2975C120.001 17.3375 119.811 17.4475 119.591 17.6275C119.371 17.8075 119.151 18.0175 118.931 18.2575C118.711 18.4775 118.521 18.6975 118.361 18.9175C118.201 19.1175 118.091 19.2775 118.031 19.3975C118.111 19.4975 118.271 19.5775 118.511 19.6375C118.751 19.6975 119.011 19.7275 119.291 19.7275C119.591 19.7275 119.841 19.7075 120.041 19.6675Z" fill="#554144"/>
<path d="M175.312 101.692C174.584 102.039 173.709 101.76 173.358 101.07L167.642 89.825C167.291 89.135 167.597 88.2944 168.326 87.9475C169.054 87.6007 169.929 87.8789 170.28 88.5689L175.361 98.5647L185.911 93.5402C186.639 93.1934 187.514 93.4716 187.865 94.1616C188.216 94.8517 187.91 95.6923 187.181 96.0392L175.312 101.692ZM143.164 28.4031C142.412 28.1299 142.046 27.3228 142.344 26.6004C142.643 25.878 143.494 25.5138 144.245 25.787L143.705 27.095L143.164 28.4031ZM174.677 100.442L173.296 100.003C183.095 73.0899 175.483 55.2631 165.555 44.1273C160.561 38.525 154.947 34.5848 150.575 32.0442C148.391 30.7754 146.524 29.8596 145.209 29.2634C144.551 28.9654 144.032 28.7475 143.681 28.6055C143.506 28.5345 143.373 28.4825 143.285 28.4489C143.241 28.4321 143.209 28.4199 143.189 28.4123C143.178 28.4085 143.171 28.4058 143.167 28.4043C143.165 28.4035 143.164 28.403 143.163 28.4028C143.163 28.4027 143.163 28.4028 143.163 28.4027C143.163 28.4029 143.164 28.4031 143.705 27.095C144.245 25.787 144.246 25.7874 144.247 25.7878C144.248 25.788 144.249 25.7885 144.251 25.789C144.253 25.7899 144.257 25.7911 144.261 25.7926C144.269 25.7956 144.28 25.7997 144.294 25.805C144.323 25.8156 144.363 25.8309 144.415 25.8508C144.519 25.8907 144.669 25.9494 144.862 26.0275C145.248 26.1835 145.803 26.4172 146.5 26.7328C147.892 27.3638 149.848 28.3236 152.127 29.648C156.681 32.2939 162.554 36.4113 167.797 42.293C178.346 54.125 186.221 72.9718 176.059 100.882L174.677 100.442Z" fill="#554144"/>
</svg>
