<svg width="207" height="102" viewBox="0 0 207 102" fill="none" xmlns="http://www.w3.org/2000/svg">
<path d="M20.4742 27.6599C20.3946 27.7394 20.2056 27.7593 19.9072 27.7195C19.6088 27.6996 19.3701 27.5604 19.191 27.3018C19.0518 27.0233 18.9722 26.705 18.9523 26.3469C18.9324 25.9888 18.9324 25.4915 18.9523 24.8549C19.0717 24.1586 19.2706 23.2436 19.5491 22.1096C19.8276 20.9757 20.136 19.7125 20.4742 18.32C20.8322 16.9076 21.1903 15.4653 21.5484 13.9932C21.7274 13.2969 21.8667 12.7101 21.9661 12.2327C22.0855 11.7552 22.1651 11.3971 22.2049 11.1584C22.2645 10.8998 22.2944 10.7705 22.2944 10.7705C22.2745 10.8103 22.2447 10.8501 22.2049 10.8899C22.185 10.9297 22.1651 10.9694 22.1452 11.0092C22.1253 11.049 22.1054 11.0888 22.0855 11.1286C22.0855 11.1286 22.0457 11.1982 21.9661 11.3375C21.9065 11.4767 21.7672 11.7154 21.5484 12.0536C21.3892 12.2923 21.24 12.5708 21.1008 12.8891C20.9615 13.2074 20.7228 13.6252 20.3846 14.1424C20.0663 14.7392 19.7083 15.4255 19.3104 16.2014C18.9125 16.9772 18.5744 17.5939 18.2958 18.0514C18.1566 18.2703 18.0273 18.4592 17.9079 18.6184C17.8085 18.7775 17.7388 18.9068 17.699 19.0063C17.6195 19.2251 17.4902 19.4937 17.3111 19.812C17.1321 20.1303 16.9232 20.4386 16.6845 20.737C16.5651 20.916 16.406 21.1249 16.2071 21.3636C16.028 21.6024 15.8689 21.8212 15.7296 22.0201C15.5904 22.1992 15.5207 22.2887 15.5207 22.2887C15.481 22.408 15.3516 22.597 15.1328 22.8556C14.914 23.1143 14.6454 23.4027 14.3271 23.721C14.0288 24.0194 13.7204 24.2979 13.4021 24.5565C12.7059 25.1135 12.1289 25.4617 11.6714 25.6009C11.2338 25.7402 10.7265 25.5711 10.1496 25.0936C9.89096 24.7753 9.68208 24.457 9.52294 24.1388C9.36379 23.8006 9.28422 23.343 9.28422 22.7661C9.28422 22.1892 9.38368 21.3835 9.58262 20.3491C9.72187 19.6926 9.87107 18.9964 10.0302 18.2603C10.2093 17.5243 10.3883 16.818 10.5673 16.1417C10.7464 15.4454 10.9055 14.8486 11.0448 14.3513C11.2039 13.8341 11.3133 13.476 11.373 13.2771C11.4327 12.7797 11.4426 12.5211 11.4028 12.5012C11.3631 12.4614 11.2636 12.5708 11.1044 12.8295C10.9652 13.0483 10.7066 13.5058 10.3286 14.2021C9.95064 14.8983 9.52294 15.714 9.0455 16.649C8.58795 17.5839 8.14036 18.5189 7.70271 19.4539C6.88708 20.9658 6.20077 22.229 5.64376 23.2436C5.08675 24.2581 4.6292 25.0737 4.27113 25.6904C3.91305 26.2872 3.63454 26.7348 3.43561 27.0332C3.25657 27.3515 3.11732 27.5703 3.01785 27.6897C2.93828 27.8289 2.8786 27.9185 2.83881 27.9582C2.54042 27.9384 2.2818 27.7991 2.06298 27.5405C1.84415 27.2819 1.66511 26.9735 1.52586 26.6155C1.48607 26.4165 1.45623 26.2076 1.43634 25.9888C1.41645 25.77 1.43634 25.5313 1.49602 25.2727C1.57559 24.9942 1.69495 24.6958 1.8541 24.3775C2.11271 23.8602 2.36138 23.4226 2.6001 23.0645C2.83881 22.7064 2.98801 22.4876 3.04769 22.408C3.14716 22.2688 3.22673 22.1196 3.28641 21.9604C3.34609 21.8013 3.38588 21.6521 3.40577 21.5128C3.50524 21.3935 3.65444 21.1448 3.85337 20.7668C4.07219 20.3889 4.29102 19.9811 4.50984 19.5434C4.66899 19.2848 4.88782 18.9267 5.16632 18.4692C5.44483 17.9917 5.74322 17.4845 6.06152 16.9474C6.37981 16.3903 6.65831 15.8831 6.89703 15.4255C7.77233 13.854 8.4686 12.6007 8.98582 11.6657C9.50304 10.7108 9.87107 10.1041 10.0899 9.84547C10.2291 9.74601 10.3485 9.55702 10.448 9.27851C10.5673 8.98012 10.6668 8.76129 10.7464 8.62204C11.0249 8.06503 11.3034 7.60748 11.5819 7.24941C11.8803 6.87143 12.1389 6.68245 12.3577 6.68245C12.5169 6.68245 12.7158 6.74213 12.9545 6.86149C13.2131 6.98085 13.4618 7.14994 13.7005 7.36877C13.9193 7.62738 14.1183 7.97551 14.2973 8.41316C14.4962 8.83092 14.536 9.38793 14.4167 10.0842C14.3968 10.4025 14.347 10.7904 14.2675 11.2479C14.1879 11.6856 14.1083 12.1232 14.0288 12.5609C13.9492 12.9985 13.8696 13.3666 13.79 13.665C13.6309 14.5602 13.4518 15.4156 13.2529 16.2312C13.0739 17.0269 12.9048 17.763 12.7456 18.4393C12.5865 19.1157 12.4572 19.7125 12.3577 20.2297C12.2583 20.7271 12.1886 21.1349 12.1488 21.4532C12.1289 21.7715 12.1687 21.9803 12.2682 22.0798C12.3279 22.0997 12.4075 22.0798 12.5069 22.0201C12.6263 21.9405 12.7158 21.861 12.7755 21.7814C12.8948 21.6223 13.0042 21.4631 13.1037 21.304C13.2032 21.1448 13.3325 20.9459 13.4916 20.7072C13.8099 20.2695 14.1382 19.7921 14.4763 19.2749C14.8344 18.7377 15.2522 18.0813 15.7296 17.3054C16.227 16.5097 16.8138 15.5349 17.4902 14.3811C18.1665 13.2074 18.9921 11.7552 19.9669 10.0245C20.4244 9.32825 20.8621 8.63199 21.2798 7.93572C21.6976 7.23946 22.0756 6.70234 22.4137 6.32437C22.7121 6.00608 23.0802 5.89667 23.5178 5.99613C23.9754 6.0956 24.3931 6.34426 24.7711 6.74213C25.1491 7.13999 25.3579 7.62738 25.3977 8.20428C25.4176 8.48279 25.3579 8.98012 25.2187 9.69627C25.0993 10.3925 24.9302 11.1783 24.7114 12.0536C24.4926 12.9289 24.2439 13.7843 23.9654 14.6198C23.9057 14.958 23.8063 15.4056 23.667 15.9626C23.5278 16.5196 23.3786 17.0866 23.2194 17.6635C23.0603 18.2404 22.9111 18.7576 22.7718 19.2152C22.6326 19.8915 22.5132 20.4287 22.4137 20.8265C22.3342 21.2244 22.2944 21.6819 22.2944 22.1992C22.1153 22.5175 21.996 22.975 21.9363 23.5718C21.8766 24.1686 21.8468 24.7853 21.8468 25.4219C21.7672 26.1977 21.5981 26.7448 21.3395 27.0631C21.1008 27.3813 20.9416 27.5305 20.8621 27.5107C20.7029 27.451 20.5736 27.5007 20.4742 27.6599ZM27.1133 26.0187C26.8547 26.0187 26.6458 25.9689 26.4866 25.8695C26.3474 25.77 26.1684 25.6307 25.9495 25.4517C25.5716 25.0538 25.2632 24.6261 25.0245 24.1686C24.8057 23.711 24.7261 23.3132 24.7858 22.975C24.8455 22.8159 24.8653 22.6667 24.8455 22.5274C24.8455 22.3683 24.8455 22.2887 24.8455 22.2887C24.746 22.1892 24.7161 22.1295 24.7559 22.1096C24.7957 22.0699 24.8355 22.0102 24.8753 21.9306C24.9947 21.9306 25.0344 21.8212 24.9947 21.6024C24.9549 21.4432 25.0145 21.105 25.1737 20.5878C25.3527 20.0507 25.5915 19.5434 25.8898 19.066C26.0092 18.867 26.1882 18.6084 26.427 18.2901C26.6657 17.952 26.9243 17.6237 27.2028 17.3054C27.5012 16.9672 27.7698 16.6987 28.0085 16.4998C28.5058 16.082 28.9634 15.7438 29.3811 15.4852C29.8188 15.2266 30.2564 15.0475 30.6941 14.9481C31.1317 14.8486 31.5793 14.7989 32.0369 14.7989C32.5143 14.7989 32.9022 14.958 33.2006 15.2763C33.6582 15.4753 33.9764 15.7438 34.1555 16.082C34.3544 16.4202 34.4837 16.8578 34.5434 17.3949C34.6031 17.9917 34.5434 18.7278 34.3644 19.6031C34.1853 20.4585 33.6979 21.4532 32.9022 22.5871C32.4049 23.3032 31.9175 23.8602 31.4401 24.2581C30.9626 24.656 30.4355 25.024 29.8585 25.3622C29.4408 25.6407 28.9932 25.8098 28.5158 25.8695C28.0383 25.9291 27.5708 25.9789 27.1133 26.0187ZM30.1569 22.3782C30.5946 22.0002 30.9029 21.5825 31.082 21.1249C31.2809 20.6674 31.4898 20.1303 31.7086 19.5136C31.7882 19.3942 31.8379 19.1953 31.8578 18.9168C31.8976 18.6383 31.9075 18.3697 31.8877 18.1111C31.8678 17.8326 31.7981 17.6735 31.6788 17.6337C31.4997 17.4944 31.3207 17.4646 31.1417 17.5441C30.9626 17.6038 30.7338 17.7331 30.4553 17.9321C29.8585 18.4294 29.3015 19.0063 28.7843 19.6628C28.287 20.2994 27.9389 21.0851 27.7399 22.0201C27.6802 22.5175 27.73 22.8954 27.8891 23.154C28.0682 23.3928 28.3467 23.4624 28.7246 23.3629C29.1225 23.2436 29.5999 22.9153 30.1569 22.3782ZM37.4768 26.4066C36.8004 26.1281 36.3031 25.8396 35.9848 25.5412C35.6864 25.2229 35.567 24.9444 35.6267 24.7057C35.6665 24.5863 35.7361 24.4769 35.8356 24.3775C35.9351 24.278 36.1539 24.2382 36.4921 24.2581C36.8502 24.2581 37.3972 24.3476 38.1333 24.5267C38.3521 24.5267 38.5709 24.5167 38.7897 24.4968C39.0086 24.4769 39.2075 24.4471 39.3865 24.4073C39.5855 24.3675 39.7446 24.3178 39.864 24.2581C39.9634 24.2183 39.9933 24.1686 39.9535 24.1089C39.9137 24.0293 39.8441 23.9498 39.7446 23.8702C39.665 23.7707 39.5755 23.711 39.4761 23.6912C39.3766 23.6514 39.2871 23.6315 39.2075 23.6315C39.1677 23.532 39.0782 23.4325 38.9389 23.3331C38.8196 23.2336 38.6704 23.1242 38.4913 23.0048C38.0537 22.6468 37.6558 22.3285 37.2978 22.05C36.9397 21.7715 36.8004 21.5626 36.88 21.4233C36.88 21.3438 36.88 21.304 36.88 21.304C36.88 21.2841 36.88 21.2741 36.88 21.2741C36.7407 21.2741 36.6114 21.0851 36.4921 20.7072C36.3727 20.3093 36.313 19.9512 36.313 19.6329C36.313 19.2351 36.3926 18.8372 36.5518 18.4393C36.7308 18.0415 36.9496 17.6635 37.2082 17.3054C37.4867 16.9474 37.7652 16.6291 38.0438 16.3506C38.4217 15.9925 38.8196 15.6443 39.2373 15.3062C39.675 14.9481 40.1425 14.6298 40.6398 14.3513C41.157 14.0728 41.724 13.854 42.3407 13.6948C42.6192 13.6351 42.9375 13.6053 43.2956 13.6053C43.6536 13.6053 43.9123 13.655 44.0714 13.7545C44.2305 13.655 44.4295 13.6849 44.6682 13.844C44.9069 13.9833 45.1456 14.1822 45.3844 14.4408C45.6231 14.6994 45.8021 14.958 45.9215 15.2166C45.9215 15.4554 45.9115 15.7538 45.8916 16.1118C45.8916 16.45 45.8717 16.7484 45.8319 17.007C45.7922 17.2656 45.7026 17.3949 45.5634 17.3949C45.5634 17.3949 45.5335 17.4049 45.4739 17.4248C45.4341 17.4248 45.4142 17.4745 45.4142 17.574C45.4142 17.7729 45.265 18.0017 44.9666 18.2603C44.5886 18.5189 44.2305 18.7278 43.8924 18.8869C43.5542 19.0461 43.2956 19.056 43.1165 18.9168C42.9972 18.8372 42.8878 18.7576 42.7883 18.6781C42.6888 18.5985 42.5993 18.499 42.5197 18.3797C42.5197 18.3797 42.4899 18.3399 42.4302 18.2603C42.3904 18.1608 42.3705 18.0713 42.3705 17.9917C42.3705 17.9122 42.4004 17.8425 42.46 17.7829C42.5197 17.7033 42.5496 17.6635 42.5496 17.6635C42.8281 17.4049 43.037 17.1662 43.1762 16.9474C43.3353 16.7285 43.4448 16.5395 43.5044 16.3804C43.5641 16.2014 43.594 16.0621 43.594 15.9626C43.594 15.8433 43.5641 15.7737 43.5044 15.7538C43.4647 15.714 43.3652 15.6941 43.206 15.6941C43.1066 15.6941 42.8878 15.7737 42.5496 15.9328C42.2313 16.0919 41.8931 16.2909 41.535 16.5296C41.1769 16.7484 40.8984 16.9474 40.6995 17.1264C40.6199 17.2656 40.5602 17.3552 40.5205 17.3949C40.5006 17.4347 40.4508 17.4546 40.3713 17.4546C40.3713 17.3751 40.3215 17.385 40.2221 17.4845C40.1226 17.5839 40.0032 17.7232 39.864 17.9022C39.7247 18.0813 39.5855 18.2703 39.4462 18.4692C39.307 18.6681 39.1976 18.8273 39.118 18.9466C39.0981 19.1257 39.0484 19.2948 38.9688 19.4539C38.9091 19.5931 38.8892 19.7423 38.9091 19.9015C38.929 20.1004 39.0285 20.2894 39.2075 20.4685C39.3865 20.6475 39.6452 20.8763 39.9833 21.1548C40.6796 21.672 41.1968 22.0798 41.535 22.3782C41.8931 22.6766 42.1418 22.9153 42.281 23.0944C42.4203 23.2734 42.5098 23.4524 42.5496 23.6315C42.8878 24.2482 42.9275 24.7853 42.6689 25.2428C42.4103 25.6805 42.0124 26.0187 41.4753 26.2574C41.2764 26.3568 40.9283 26.4464 40.4309 26.5259C39.9336 26.6254 39.4064 26.6652 38.8494 26.6453C38.3123 26.6453 37.8548 26.5657 37.4768 26.4066ZM50.2067 26.4066C49.9282 26.327 49.6497 26.1878 49.3712 25.9888C49.0927 25.7899 48.8043 25.5611 48.5059 25.3025C48.2672 24.9842 48.0981 24.6958 47.9986 24.4371C47.8991 24.1586 47.8395 23.8404 47.8196 23.4823C47.8196 23.1043 47.8196 22.6269 47.8196 22.05C47.8196 21.8112 47.8593 21.4731 47.9389 21.0354C48.0384 20.5978 48.1379 20.1402 48.2373 19.6628C48.3567 19.1853 48.4661 18.7676 48.5656 18.4095C48.665 18.0315 48.7247 17.7829 48.7446 17.6635C48.8043 17.4049 48.7048 17.2557 48.4462 17.2159C48.1876 17.1761 47.8991 17.1662 47.5808 17.1861C47.2824 17.1861 47.0835 17.1562 46.984 17.0966C46.9045 17.0767 46.8647 16.9772 46.8647 16.7982C46.8647 16.5992 46.8647 16.4998 46.8647 16.4998C46.8647 16.4202 46.8249 16.3704 46.7453 16.3506C46.6658 16.3108 46.5961 16.2411 46.5364 16.1417C46.4967 16.0621 46.5464 15.9129 46.6856 15.6941C46.8249 15.4753 47.0039 15.3459 47.2228 15.3062C47.4018 15.2664 47.6704 15.2365 48.0284 15.2166C48.3865 15.1769 48.7446 15.1072 49.1027 15.0078C49.4806 14.8884 49.7691 14.7094 49.968 14.4706C50.1471 14.033 50.346 13.5655 50.5648 13.0682C50.7837 12.5509 50.9925 12.1034 51.1915 11.7254C51.3904 11.3275 51.5296 11.0789 51.6092 10.9794C51.9474 10.8003 52.2955 10.7307 52.6536 10.7705C53.0117 10.7904 53.2902 10.9595 53.4891 11.2778C53.5886 11.417 53.6682 11.5165 53.7278 11.5762C53.8074 11.6359 53.8373 11.7254 53.8174 11.8447C53.8174 11.9641 53.7378 12.1829 53.5786 12.5012C53.4394 12.7996 53.2007 13.2671 52.8625 13.9037C52.763 14.1026 52.6735 14.2817 52.5939 14.4408C52.5144 14.5801 52.4746 14.6497 52.4746 14.6497C52.5541 14.6696 52.6735 14.6795 52.8327 14.6795C52.9918 14.6795 53.1907 14.6696 53.4294 14.6497C53.6483 14.6099 53.887 14.5801 54.1456 14.5602C54.4042 14.5204 54.633 14.5204 54.8319 14.5602C55.2895 14.5602 55.6277 14.6895 55.8465 14.9481C56.0653 15.2067 56.1847 15.5349 56.2046 15.9328C56.2443 16.1516 56.1648 16.3406 55.9658 16.4998C55.7669 16.6589 55.3989 16.7385 54.8618 16.7385C54.6827 16.7385 54.4241 16.7484 54.0859 16.7683C53.7477 16.7882 53.3996 16.8081 53.0415 16.828C52.6835 16.8479 52.3751 16.8777 52.1165 16.9175C51.8778 16.9374 51.7584 16.9672 51.7584 17.007C51.6987 17.0468 51.5993 17.206 51.46 17.4845C51.3407 17.7431 51.2114 18.0614 51.0721 18.4393C50.9527 18.8173 50.8433 19.1754 50.7439 19.5136C50.6046 20.1899 50.5051 20.8464 50.4455 21.483C50.3858 22.1196 50.3758 22.6766 50.4156 23.154C50.4753 23.6116 50.5947 23.9398 50.7737 24.1388C50.9527 24.3178 51.2213 24.3178 51.5794 24.1388C51.9574 23.9398 52.3055 23.711 52.6238 23.4524C52.9819 23.154 53.2902 23.0645 53.5488 23.1839C53.8074 23.2833 53.9666 23.5022 54.0262 23.8404C54.1058 24.1586 54.0163 24.5068 53.7577 24.8847C53.519 25.2627 53.1808 25.581 52.7431 25.8396C52.3055 26.0982 51.8579 26.2773 51.4003 26.3767C50.9428 26.4961 50.5449 26.506 50.2067 26.4066ZM62.1499 33.4786C62.0107 33.4189 61.7918 33.2697 61.4934 33.031C61.2149 32.7923 60.9563 32.5337 60.7176 32.2552C60.4988 31.9966 60.3894 31.8076 60.3894 31.6882C60.3894 31.5689 60.4391 31.2506 60.5386 30.7334C60.638 30.236 60.7673 29.6193 60.9265 28.8833C61.1055 28.1671 61.2945 27.4311 61.4934 26.6751C61.7123 25.9391 61.9311 25.2826 62.1499 24.7057C62.1897 24.6062 62.319 24.278 62.5378 23.721C62.7765 23.1441 63.0053 22.4478 63.2241 21.6322C63.3833 21.115 63.5922 20.5281 63.8508 19.8717C64.1094 19.2152 64.3779 18.5587 64.6565 17.9022C64.935 17.2259 65.1637 16.6291 65.3428 16.1118C65.5218 15.5946 65.7207 15.0774 65.9396 14.5602C66.1584 14.023 66.2777 13.7147 66.2976 13.6351C66.3374 13.5158 66.4468 13.4163 66.6259 13.3367C66.8248 13.2373 67.0237 13.1577 67.2227 13.098C67.4216 13.0184 67.5509 12.9687 67.6106 12.9488C67.9687 12.8493 68.277 12.9985 68.5356 13.3964C68.6351 13.5755 68.655 13.8241 68.5953 14.1424C68.5555 14.4408 68.4561 14.769 68.2969 15.1271L68.088 15.7239L69.1623 15.4852C69.3413 15.4852 69.59 15.4951 69.9083 15.515C70.2266 15.5349 70.5349 15.5548 70.8333 15.5747C71.1516 15.5946 71.3704 15.6245 71.4898 15.6642C71.9672 15.6841 72.2954 15.7737 72.4745 15.9328C72.6734 16.0919 72.8425 16.3008 72.9818 16.5594C73.0812 16.6589 73.2006 16.7982 73.3398 16.9772C73.4791 17.1363 73.5587 17.2955 73.5786 17.4546C73.6581 17.7928 73.6283 18.1907 73.489 18.6482C73.3697 19.1058 73.1807 19.5733 72.9221 20.0507C72.6834 20.5082 72.3949 20.9359 72.0567 21.3338C71.7384 21.7118 71.4301 22.0002 71.1317 22.1992C70.9328 22.2787 70.7537 22.3683 70.5946 22.4677C70.4354 22.5473 70.3559 22.5871 70.3559 22.5871C70.336 22.6865 70.1271 22.8556 69.7292 23.0944C69.3513 23.3331 68.9037 23.5618 68.3864 23.7807C67.8891 23.9796 67.4415 24.1089 67.0436 24.1686C66.9044 24.1885 66.7055 24.2084 66.4468 24.2283C66.1882 24.2482 65.9893 24.2183 65.85 24.1388C65.6312 24.099 65.482 24.0791 65.4024 24.0791C65.3229 24.0791 65.2831 24.1189 65.2831 24.1984C65.2632 24.2382 65.1239 24.5565 64.8653 25.1533C64.6067 25.7501 64.3382 26.5757 64.0597 27.63C63.6817 28.7838 63.3733 29.7287 63.1346 30.4648C62.8959 31.2207 62.7069 31.8076 62.5677 32.2253C62.4483 32.6431 62.3588 32.9415 62.2991 33.1205C62.2394 33.3195 62.1897 33.4388 62.1499 33.4786ZM65.9992 21.5725C66.0589 21.6919 66.2678 21.7317 66.6259 21.6919C66.984 21.6322 67.3918 21.5128 67.8493 21.3338C68.3069 21.1548 68.7147 20.9459 69.0727 20.7072C69.4507 20.4486 69.6695 20.18 69.7292 19.9015C70.1669 19.4042 70.4752 19.0461 70.6543 18.8273C70.8333 18.5885 70.8234 18.3996 70.6244 18.2603C70.4056 17.942 70.0873 17.7928 69.6695 17.8127C69.2717 17.8326 68.6351 18.0813 67.7598 18.5587C67.4216 18.6781 67.1928 18.7875 67.0735 18.8869C66.9541 18.9665 66.8547 19.0958 66.7751 19.2749C66.7154 19.4539 66.596 19.7423 66.417 20.1402C66.238 20.5779 66.1186 20.9061 66.0589 21.1249C65.9992 21.3438 65.9794 21.493 65.9992 21.5725ZM77.5452 25.9888C77.1274 26.0684 76.8091 26.0485 76.5903 25.9291C76.3914 25.7899 76.1825 25.6208 75.9637 25.4219C75.6454 25.2627 75.3569 25.0439 75.0983 24.7654C74.8397 24.467 74.6408 24.1586 74.5015 23.8404C74.3622 23.5221 74.3026 23.2734 74.3225 23.0944C74.3821 22.3981 74.5413 21.6422 74.7999 20.8265C75.0784 20.0109 75.4265 19.2152 75.8443 18.4393C76.2819 17.6635 76.7693 16.9772 77.3064 16.3804C77.8635 15.7637 78.4602 15.3161 79.0968 15.0376C79.4947 14.8785 79.9224 14.8188 80.3799 14.8586C80.8375 14.8983 81.1458 15.0873 81.305 15.4255C81.6034 16.0024 81.5338 16.3704 81.0961 16.5296C81.0364 16.5296 80.9668 16.5594 80.8872 16.6191C80.8076 16.6589 80.7679 16.7186 80.7679 16.7982C80.8474 16.8379 81.0663 16.8479 81.4243 16.828C81.7824 16.7882 82.1405 16.7285 82.4986 16.649C82.8765 16.5495 83.1252 16.45 83.2446 16.3506C83.3639 16.2909 83.4534 16.261 83.5131 16.261C83.5728 16.261 83.722 16.2809 83.9607 16.3207C84.2989 16.4202 84.468 16.5395 84.468 16.6788C84.468 16.7584 84.4978 16.8877 84.5575 17.0667C84.6172 17.2259 84.6868 17.3054 84.7664 17.3054C84.9057 17.3253 84.9355 17.4646 84.8559 17.7232C84.7962 17.9818 84.5675 18.2504 84.1696 18.5289C83.7916 18.7676 83.5529 18.9267 83.4534 19.0063C83.3739 19.066 83.3639 19.2052 83.4236 19.4241C83.5828 19.802 83.5728 20.2596 83.3938 20.7967C83.2147 21.3338 82.9163 21.8908 82.4986 22.4677C82.0808 23.0446 81.5835 23.5917 81.0066 24.1089C80.4496 24.6062 79.8627 25.0339 79.246 25.392C78.6492 25.7302 78.0823 25.9291 77.5452 25.9888ZM77.6347 23.4823C77.7143 23.4823 77.8535 23.4425 78.0524 23.3629C78.2514 23.2634 78.4105 23.1839 78.5299 23.1242C78.6094 23.0446 78.7089 22.9551 78.8283 22.8556C78.9675 22.7363 79.0769 22.6667 79.1565 22.6468C79.2361 22.6468 79.2858 22.6169 79.3057 22.5572C79.3256 22.4777 79.3952 22.3285 79.5146 22.1096C79.634 21.8709 79.8727 21.5228 80.2307 21.0652C80.6286 20.6276 80.8872 20.2795 81.0066 20.0209C81.1259 19.7423 81.1359 19.444 81.0364 19.1257C81.0165 19.0461 80.9568 18.9964 80.8574 18.9765C80.7778 18.9566 80.6684 18.9068 80.5291 18.8273C80.3302 18.8273 80.191 18.877 80.1114 18.9765C80.0517 19.056 79.9125 19.0063 79.6936 18.8273L79.2162 18.2305L78.7089 18.7377C78.3906 19.056 78.1022 19.4539 77.8436 19.9313C77.6048 20.4088 77.4159 20.8962 77.2766 21.3935C77.1374 21.8908 77.0478 22.3285 77.008 22.7064C76.9882 23.0048 77.0379 23.2038 77.1572 23.3032C77.2766 23.4027 77.4357 23.4624 77.6347 23.4823ZM84.3577 33.1802C84.2782 33.1802 84.1588 33.1802 83.9997 33.1802C83.8604 33.2001 83.741 33.1205 83.6416 32.9415C83.562 32.842 83.4426 32.6431 83.2835 32.3447C83.1244 32.0662 83.0945 31.6683 83.194 31.1511C83.2934 30.8129 83.373 30.4747 83.4327 30.1366C83.4924 29.8183 83.5222 29.5795 83.5222 29.4204C83.5222 29.3408 83.5421 29.1817 83.5819 28.943C83.6416 28.7241 83.6714 28.565 83.6714 28.4655C83.7709 28.3064 83.8505 28.0876 83.9101 27.8091C83.9698 27.5305 83.9997 27.2819 83.9997 27.0631C83.9997 26.8243 84.119 26.6055 84.3577 26.4066C84.3577 26.2474 84.3876 26.0485 84.4473 25.8098C84.5268 25.5711 84.5666 25.4119 84.5666 25.3323C84.6263 25.0538 84.7556 24.5665 84.9545 23.8702C85.1734 23.154 85.432 22.3484 85.7304 21.4532C86.0487 20.558 86.357 19.6827 86.6554 18.8273C86.9538 17.9719 87.2224 17.2457 87.4611 16.649C87.6998 16.0919 87.8987 15.5747 88.0579 15.0973C88.217 14.6198 88.2966 14.2817 88.2966 14.0827C88.2966 14.0032 88.3165 13.9435 88.3563 13.9037C88.3961 13.844 88.4856 13.7346 88.6248 13.5755C88.8238 13.3765 89.0824 13.3069 89.4007 13.3666C89.7389 13.4064 90.0174 13.5058 90.2362 13.665C90.3953 13.9236 90.5047 14.1623 90.5644 14.3811C90.644 14.5801 90.644 14.8983 90.5644 15.336C90.5644 15.6344 90.4948 15.9129 90.3555 16.1715C90.2163 16.4102 90.087 16.6092 89.9676 16.7683C89.8682 16.9076 89.8383 16.9672 89.8781 16.9474C90.7534 16.4102 91.5392 16.1218 92.2355 16.082C92.9516 16.0223 93.5484 16.1417 94.0258 16.4401C94.5232 16.7186 94.9011 17.1065 95.1598 17.6038C95.4184 18.1012 95.5477 18.6383 95.5477 19.2152C95.5477 19.4539 95.4681 19.7722 95.309 20.1701C95.1498 20.5679 94.9708 20.9459 94.7718 21.304C94.5729 21.6422 94.4138 21.8709 94.2944 21.9903C94.2148 21.9903 94.1353 22.0599 94.0557 22.1992C93.9761 22.3185 93.8965 22.4578 93.817 22.6169C93.6578 22.8159 93.3893 23.0446 93.0113 23.3032C92.6532 23.542 92.2852 23.7409 91.9072 23.9C91.5292 24.0393 91.2607 24.0791 91.1015 24.0194C91.1015 24.0194 91.0717 24.0393 91.012 24.0791C90.9722 24.1189 90.9523 24.1885 90.9523 24.2879C90.9523 24.3277 90.8131 24.4073 90.5346 24.5267C90.2561 24.646 89.9278 24.7554 89.5499 24.8549C89.1719 24.9544 88.8238 25.0041 88.5055 25.0041C88.0877 25.0041 87.7893 24.9245 87.6103 24.7654C87.5705 24.8052 87.5208 24.8649 87.4611 24.9444C87.4213 25.024 87.4014 25.0936 87.4014 25.1533C87.4014 25.2727 87.3517 25.4617 87.2522 25.7203C87.1726 25.9789 87.0732 26.2076 86.9538 26.4066C86.8344 26.6254 86.725 26.7348 86.6256 26.7348C86.6256 26.7348 86.6057 26.7647 86.5659 26.8243C86.5261 26.884 86.546 26.9636 86.6256 27.0631C86.6256 27.0631 86.6156 27.1725 86.5957 27.3913C86.5957 27.63 86.546 27.8289 86.4465 27.9881C86.4465 28.1472 86.4167 28.386 86.357 28.7042C86.2973 29.0225 86.2277 29.2613 86.1481 29.4204C86.1481 29.6591 86.1083 29.8879 86.0288 30.1067C85.9691 30.3454 85.8995 30.4648 85.8199 30.4648C85.7403 30.4847 85.6906 30.604 85.6707 30.8229C85.6508 31.0616 85.6408 31.2307 85.6408 31.3302C85.621 31.8275 85.4618 32.2552 85.1634 32.6133C84.865 32.9912 84.5965 33.1802 84.3577 33.1802ZM88.1772 22.7363C88.3364 22.7363 88.6248 22.6667 89.0426 22.5274C89.4603 22.3881 89.898 22.2191 90.3555 22.0201C90.8131 21.8013 91.1712 21.5825 91.4298 21.3636C91.947 20.9061 92.3449 20.4585 92.6234 20.0209C92.9218 19.5832 92.9019 19.0958 92.5637 18.5587C92.4045 18.2802 92.1459 18.1708 91.7879 18.2305C91.4497 18.2703 91.0717 18.4294 90.6539 18.7079C90.2362 18.9864 89.8085 19.3345 89.3708 19.7523C89.1321 20.0109 88.9133 20.3093 88.7144 20.6475C88.5154 20.9857 88.3463 21.3139 88.2071 21.6322C88.0877 21.9505 88.0181 22.2191 87.9982 22.4379C87.9783 22.6368 88.038 22.7363 88.1772 22.7363ZM98.8876 25.1831C98.5097 24.845 98.1814 24.4968 97.9029 24.1388C97.6244 23.7608 97.4354 23.1839 97.336 22.408C97.2962 22.05 97.336 21.5526 97.4553 20.916C97.5747 20.2795 97.7537 19.613 97.9924 18.9168C98.2312 18.2006 98.4898 17.5441 98.7683 16.9474C99.0468 16.3506 99.3253 15.9129 99.6038 15.6344C99.8425 15.336 100.141 15.0973 100.499 14.9182C100.877 14.7392 101.265 14.7392 101.663 14.9182C101.882 15.1769 101.991 15.5349 101.991 15.9925C102.011 16.4301 101.901 16.8379 101.663 17.2159C101.265 17.753 100.917 18.4294 100.618 19.245C100.34 20.0407 100.151 20.7569 100.051 21.3935C99.9121 21.851 99.8525 22.2091 99.8724 22.4677C99.8922 22.7064 100.031 22.8556 100.29 22.9153C100.668 23.0148 101.056 22.9054 101.454 22.5871C101.872 22.2688 102.269 21.8013 102.647 21.1846C103.045 20.5679 103.393 19.8617 103.692 19.066C103.811 18.7875 103.901 18.4592 103.96 18.0813C104.04 17.7033 104.12 17.4248 104.199 17.2457C104.299 16.8479 104.468 16.5395 104.706 16.3207C104.965 16.082 105.234 15.9328 105.512 15.8731C105.791 15.8134 105.999 15.8433 106.139 15.9626C106.318 16.0422 106.507 16.1715 106.706 16.3506C106.905 16.5296 106.984 16.8479 106.944 17.3054C106.944 18.0415 106.785 18.6681 106.467 19.1853C106.149 19.7026 105.88 20.2496 105.661 20.8265C105.482 21.2443 105.194 21.7317 104.796 22.2887C104.398 22.8457 103.97 23.353 103.513 23.8105C103.075 24.2681 102.667 24.5764 102.289 24.7355C101.732 25.0936 101.165 25.3125 100.589 25.392C100.012 25.4517 99.4446 25.3821 98.8876 25.1831ZM108.619 25.5114C108.42 25.392 108.201 25.2229 107.962 25.0041C107.724 24.7654 107.604 24.5366 107.604 24.3178C107.604 24.0194 107.644 23.6514 107.724 23.2137C107.803 22.7562 107.883 22.3683 107.962 22.05C108.002 21.6919 108.052 21.3338 108.112 20.9757C108.191 20.5978 108.33 20.2496 108.529 19.9313C108.748 19.1754 108.977 18.4294 109.216 17.6933C109.454 16.9374 109.663 16.1616 109.842 15.3658C110.101 14.6298 110.33 13.9833 110.529 13.4263C110.747 12.8493 111.016 12.1232 111.334 11.2479C111.513 10.7506 111.663 10.2234 111.782 9.66643C111.921 9.08953 112.13 8.5723 112.409 8.11476C112.528 7.93572 112.617 7.78652 112.677 7.66716C112.757 7.52791 112.836 7.39861 112.916 7.27925C112.936 7.19967 113.035 7.13005 113.214 7.07037C113.413 7.01069 113.612 6.98085 113.811 6.98085C114.03 6.96095 114.179 7.00074 114.259 7.10021C114.318 7.08031 114.418 7.15989 114.557 7.33893C114.696 7.49807 114.826 7.68706 114.945 7.90588C115.084 8.10481 115.144 8.26396 115.124 8.38332C115.124 8.46289 115.104 8.57231 115.064 8.71156C115.044 8.85081 114.995 8.98012 114.915 9.09948C114.836 9.17905 114.756 9.29841 114.676 9.45755C114.617 9.59681 114.517 9.79574 114.378 10.0543C114.298 10.313 114.229 10.5815 114.169 10.86C114.109 11.1186 114.03 11.3574 113.93 11.5762C113.851 11.8149 113.751 12.0437 113.632 12.2625C113.533 12.4813 113.463 12.6604 113.423 12.7996C113.284 13.2572 113.115 13.7048 112.916 14.1424C112.737 14.5801 112.578 15.0475 112.438 15.5449C112.299 16.0223 112.16 16.5196 112.021 17.0369C111.881 17.5342 111.682 18.0116 111.424 18.4692C111.285 18.688 111.185 18.9665 111.125 19.3047C111.066 19.6429 111.006 19.9811 110.946 20.3193C110.827 20.6773 110.718 21.0155 110.618 21.3338C110.539 21.6322 110.499 21.8212 110.499 21.9008C110.379 22.3384 110.29 22.7761 110.23 23.2137C110.19 23.6315 110.091 23.9995 109.932 24.3178C109.912 24.5167 109.842 24.7355 109.723 24.9743C109.604 25.213 109.444 25.392 109.246 25.5114C109.067 25.6307 108.858 25.6307 108.619 25.5114ZM113.863 25.6009C113.783 25.4418 113.604 25.2826 113.326 25.1235C113.067 24.9643 112.938 24.845 112.938 24.7654C112.938 24.6858 112.888 24.5665 112.789 24.4073C112.709 24.2283 112.629 24.099 112.55 24.0194C112.45 23.9 112.48 23.6116 112.639 23.154C112.799 22.6766 113.037 22.0997 113.356 21.4233C113.674 20.747 114.022 20.0606 114.4 19.3644C114.559 19.2052 114.718 18.9964 114.877 18.7377C115.036 18.4791 115.156 18.31 115.235 18.2305C115.235 18.1509 115.265 18.0813 115.325 18.0216C115.385 17.942 115.454 17.9022 115.534 17.9022L115.773 17.4248C115.812 17.3452 115.932 17.1861 116.131 16.9474C116.349 16.7086 116.608 16.45 116.906 16.1715C117.205 15.8731 117.503 15.5946 117.802 15.336C118.12 15.0774 118.379 14.8884 118.577 14.769C118.995 14.4905 119.423 14.3612 119.861 14.3811C120.318 14.401 120.706 14.5403 121.024 14.7989C121.084 14.8586 121.213 14.9779 121.412 15.157C121.631 15.336 121.87 15.5349 122.128 15.7538C122.407 15.9726 122.646 16.1715 122.845 16.3506L123.949 17.3353L123.441 18.8273C123.183 19.623 123.113 20.3193 123.233 20.916C123.352 21.5128 123.541 22.0301 123.799 22.4677C123.899 22.6865 124.028 22.8556 124.187 22.975C124.366 23.0944 124.595 23.1739 124.874 23.2137C125.033 23.2336 125.182 23.2933 125.321 23.3928C125.461 23.4922 125.53 23.6514 125.53 23.8702C125.53 24.3476 125.441 24.6958 125.262 24.9146C125.102 25.1135 124.923 25.2329 124.724 25.2727C124.068 25.3522 123.441 25.2826 122.845 25.0638C122.248 24.845 121.711 24.278 121.233 23.3629C121.154 23.2436 121.044 23.0247 120.905 22.7064C120.786 22.3683 120.716 22.1494 120.696 22.05C120.617 22.1494 120.507 22.2787 120.368 22.4379C120.249 22.5771 120.129 22.7064 120.01 22.8258C118.597 24.2581 117.384 25.1931 116.369 25.6307C115.375 26.0485 114.539 26.0386 113.863 25.6009ZM115.504 23.1242C115.643 23.1441 115.862 23.0745 116.16 22.9153C116.459 22.7363 116.857 22.4478 117.354 22.05C118.03 21.4731 118.587 20.9956 119.025 20.6177C119.463 20.2397 119.89 19.7523 120.308 19.1555L120.965 18.0813C120.766 17.6237 120.587 17.3253 120.428 17.1861C120.268 17.0468 120.109 16.9772 119.95 16.9772C119.692 16.9772 119.383 17.1463 119.025 17.4845C118.667 17.8028 118.259 18.2802 117.802 18.9168C117.364 19.5335 116.867 20.3093 116.31 21.2443C116.051 21.6819 115.852 22.1096 115.713 22.5274C115.574 22.9253 115.504 23.1242 115.504 23.1242ZM127.359 25.7799C127.22 25.7799 127.031 25.6805 126.792 25.4815C126.573 25.2826 126.444 25.1036 126.404 24.9444C126.344 24.7853 126.344 24.5565 126.404 24.2581C126.484 23.9398 126.593 23.5718 126.732 23.154C126.892 22.4976 127.001 22.0201 127.061 21.7217C127.12 21.4233 127.18 21.1647 127.24 20.9459C127.299 20.7271 127.379 20.4088 127.478 19.991C127.598 19.7324 127.687 19.4837 127.747 19.245C127.827 18.9864 127.906 18.7278 127.986 18.4692C128.085 18.2106 128.195 17.952 128.314 17.6933C128.453 17.1761 128.622 16.6887 128.821 16.2312C129.04 15.7538 129.249 15.3559 129.448 15.0376C129.488 14.9779 129.577 14.8685 129.716 14.7094C129.856 14.5502 129.965 14.4706 130.045 14.4706C130.204 14.3115 130.423 14.2618 130.701 14.3214C130.98 14.3612 131.218 14.4607 131.417 14.6198C131.656 14.8785 131.785 15.1868 131.805 15.5449C131.845 15.8831 131.706 16.3605 131.387 16.9772C131.149 17.5939 130.92 18.0813 130.701 18.4393C130.502 18.7775 130.303 19.1754 130.104 19.6329C130.323 19.3146 130.592 18.9864 130.91 18.6482C131.228 18.31 131.477 18.0415 131.656 17.8425C131.915 17.564 132.153 17.3452 132.372 17.1861C132.611 17.007 132.929 16.7882 133.327 16.5296C133.665 16.2909 134.003 16.072 134.342 15.8731C134.7 15.6742 135.127 15.6145 135.625 15.6941C135.824 15.6742 136.032 15.7737 136.251 15.9925C136.49 16.2113 136.669 16.4998 136.788 16.8578C136.928 17.196 136.928 17.564 136.788 17.9619C136.331 17.8624 135.923 17.8823 135.565 18.0216C135.207 18.1409 134.899 18.2901 134.64 18.4692C134.401 18.6482 134.212 18.7875 134.073 18.8869C133.874 19.0063 133.645 19.1654 133.387 19.3644C133.128 19.5434 132.85 19.7523 132.551 19.991C132.253 20.2098 131.934 20.4585 131.596 20.737C131.119 21.1349 130.761 21.483 130.522 21.7814C130.283 22.0798 130.094 22.3981 129.955 22.7363C129.836 23.0347 129.687 23.3928 129.507 23.8105C129.328 24.2283 129.159 24.6062 129 24.9444C128.841 25.2627 128.712 25.4617 128.612 25.5412C128.513 25.7402 128.304 25.8496 127.986 25.8695C127.687 25.8894 127.478 25.8595 127.359 25.7799Z" fill="#554144"/>
<path d="M181.349 101C180.638 101.345 179.782 101.049 179.436 100.338L173.802 88.7521C173.456 88.0411 173.752 87.1845 174.463 86.8388C175.174 86.4931 176.031 86.7892 176.377 87.5002L181.385 97.799L191.683 92.7913C192.394 92.4456 193.251 92.7417 193.597 93.4527C193.942 94.1637 193.646 95.0203 192.935 95.366L181.349 101ZM150.806 27.7019C150.068 27.4191 149.698 26.5914 149.981 25.8531C150.264 25.1148 151.092 24.7456 151.83 25.0285L151.318 26.3652L150.806 27.7019ZM180.723 99.7123L179.37 99.2447C188.673 72.3325 181.443 54.5211 172.034 43.4051C167.299 37.8101 161.977 33.8748 157.83 31.3372C155.759 30.0698 153.989 29.1553 152.742 28.56C152.119 28.2625 151.627 28.045 151.295 27.9034C151.129 27.8325 151.003 27.7807 150.92 27.7473C150.879 27.7306 150.848 27.7185 150.829 27.711C150.819 27.7072 150.813 27.7046 150.809 27.7031C150.807 27.7023 150.806 27.7018 150.805 27.7017C150.805 27.7016 150.805 27.7016 150.805 27.7016C150.805 27.7017 150.806 27.7019 151.318 26.3652C151.83 25.0285 151.831 25.0288 151.832 25.0292C151.833 25.0295 151.834 25.03 151.835 25.0304C151.838 25.0314 151.841 25.0326 151.845 25.0341C151.853 25.0372 151.863 25.0413 151.877 25.0467C151.904 25.0574 151.943 25.0727 151.992 25.0927C152.091 25.1328 152.235 25.1916 152.418 25.2699C152.785 25.4263 153.314 25.6604 153.976 25.9764C155.299 26.6084 157.158 27.5694 159.325 28.8953C163.653 31.5442 169.235 35.6664 174.22 41.5554C184.251 53.4074 191.724 72.2695 182.076 100.18L180.723 99.7123Z" fill="#554144"/>
</svg>
